<?xml version="1.0" encoding="utf-8"?>
<!-- Generator: Adobe Illustrator 22.1.0, SVG Export Plug-In . SVG Version: 6.00 Build 0)  -->
<svg version="1.1" id="Warstwa_1" xmlns="http://www.w3.org/2000/svg" xmlns:xlink="http://www.w3.org/1999/xlink" x="0px" y="0px"
	 width="155px" height="51.1px" viewBox="0 0 155 51.1" style="enable-background:new 0 0 155 51.1;" xml:space="preserve">
<g>
	<path d="M32.3,8.2c-1.1-1.8-2.5-3.1-4.2-4c-1.7-0.9-3.5-1.4-5.6-1.4c-3.5,0-6.3,1.2-8.5,3.5s-3.3,5.4-3.3,9.1
		c0,1.7,0.3,3.2,0.9,4.7c0.6,1.5,1.4,2.8,2.5,4c1.1,1.1,2.4,2,3.8,2.5c1.4,0.6,2.9,0.8,4.6,0.8c3.1,0,5.7-0.9,7.7-2.8
		c2-1.8,3-4.3,3-7.3h-9.7v-2.2H36v0.3c0,4.5-1.2,8-3.6,10.5c-2.4,2.5-5.8,3.8-10.1,3.8c-4.2,0-7.7-1.4-10.3-4.1s-4-6.2-4-10.6
		c0-2,0.3-3.9,1-5.7c0.6-1.8,1.6-3.4,2.9-4.7c1.4-1.4,2.9-2.5,4.6-3.2s3.6-1.1,5.7-1.1c2.9,0,5.3,0.5,7.3,1.6c2,1,3.6,2.5,4.7,4.5
		L32.3,8.2z"/>
	<path d="M70,15.3c0,2-0.4,3.8-1.1,5.6c-0.8,1.8-1.8,3.4-3.2,4.7c-1.4,1.4-3.1,2.5-4.9,3.2S57,29.9,55,29.9s-3.9-0.4-5.7-1.1
		c-1.8-0.7-3.4-1.8-4.9-3.2c-1.4-1.4-2.5-3-3.3-4.8c-0.7-1.8-1.1-3.6-1.1-5.6c0-2,0.4-3.9,1.1-5.7c0.7-1.8,1.8-3.4,3.3-4.8
		c1.4-1.4,3-2.4,4.8-3.2C51.1,0.9,53,0.5,55,0.5s4,0.4,5.8,1.1c1.8,0.7,3.4,1.8,4.8,3.1c1.4,1.4,2.5,3,3.3,4.8
		C69.7,11.4,70,13.3,70,15.3z M55,27.7c1.7,0,3.2-0.3,4.7-0.9c1.5-0.6,2.8-1.5,4-2.7c1.2-1.2,2.1-2.5,2.7-4c0.6-1.5,0.9-3.1,0.9-4.8
		c0-1.7-0.3-3.3-0.9-4.8c-0.6-1.5-1.5-2.9-2.7-4c-1.2-1.2-2.5-2.1-4-2.7S56.7,2.8,55,2.8c-1.7,0-3.2,0.3-4.7,0.9s-2.8,1.5-4,2.7
		c-1.2,1.2-2.1,2.6-2.7,4c-0.6,1.5-0.9,3.1-0.9,4.8s0.3,3.3,0.9,4.8c0.6,1.5,1.5,2.9,2.7,4c1.2,1.2,2.5,2.1,4,2.7
		C51.8,27.4,53.3,27.7,55,27.7z"/>
	<path d="M88.4,30.3L78.6,7.8l-2.1,21.4h-2.6L77.7,0l10.7,24.9L99.5,0l3.6,29.2h-2.6L98.4,7.8L88.4,30.3z"/>
	<path d="M108.4,29.2v-28h13.9v2.4h-11.3v8.8h11.3v2.4h-11.3v12.1h11.3v2.4L108.4,29.2L108.4,29.2z"/>
	<path d="M125.5,29.2l16.6-25.7h-14.2V1.2h18.6l-16.6,25.6h14.9v2.3L125.5,29.2L125.5,29.2z"/>
</g>
<g>
	<path d="M4.6,36.9l1.2-0.1l-1.2,1.9h2.3h0c0,0,0,0,0,0.1c0,0,0,0,0,0.1c0,0,0,0.1,0,0.1c0,0,0,0-0.1,0H4.4
		c-0.1,0.2-0.4,0.6-0.7,1.1S3,41.2,2.7,41.8c0,0.1-0.1,0.1-0.1,0.2c0,0.1-0.1,0.1-0.1,0.2c-0.4,0.7-0.8,1.3-1.2,1.9
		c-0.3,0.6-0.5,1-0.5,1.3c0,0.1,0,0.2,0.1,0.2s0.1,0.1,0.3,0.1c0.3,0,0.6-0.1,1-0.4c0.3-0.2,0.7-0.6,1.2-1c0.5-0.5,0.8-0.8,0.9-1
		C4.3,43.1,4.4,43,4.5,43c0,0,0.1,0,0.1,0c0,0,0,0.1,0,0.1s-0.1,0.1-0.2,0.3c-0.1,0.1-0.3,0.3-0.4,0.5c0,0-0.1,0-0.1,0.1
		s0,0-0.1,0.1c-0.1,0.1-0.1,0.1-0.2,0.2c-0.1,0.1-0.1,0.1-0.1,0.1c-0.6,0.6-1.1,1-1.4,1.2c-0.4,0.2-0.7,0.3-1,0.3
		c-0.3,0-0.5-0.1-0.7-0.3c-0.1-0.2-0.2-0.4-0.3-0.6c0,0,0,0,0-0.1s0,0,0-0.1c0-0.1,0-0.2,0-0.3c0-0.1,0-0.2,0-0.3
		c0.1-0.4,0.3-0.9,0.6-1.4c0.3-0.5,0.7-1,1.1-1.7l0,0c-0.1,0.1-0.1,0.1-0.1,0.1c0,0.1-0.1,0.1-0.1,0.1l0,0c0,0,0,0,0,0.1
		c-0.1,0.1-0.3,0.3-0.4,0.4c-0.1,0.1-0.3,0.3-0.5,0.5c0,0-0.1,0.1-0.1,0.2c-0.1,0.1-0.1,0.1-0.2,0.2c0,0,0,0,0,0
		c-0.1,0.1-0.2,0.2-0.3,0.3c-0.1,0.1-0.1,0.1-0.1,0.1c0,0-0.1,0-0.1,0c0,0,0,0,0-0.1c0,0,0.1-0.1,0.1-0.2s0.3-0.4,0.7-0.8
		C1,42,1.3,41.8,1.6,41.4c0.3-0.4,0.6-0.8,1-1.2c0.1-0.1,0.2-0.3,0.3-0.4c0.1-0.1,0.2-0.3,0.3-0.4c0.1-0.1,0.1-0.1,0.1-0.2
		c0.1-0.1,0.1-0.1,0.1-0.2H2.8c0,0-0.1,0-0.1,0c0,0,0-0.1,0-0.1c0,0,0,0,0-0.1c0,0,0,0,0-0.1c0,0,0,0,0,0h0.8L4.6,36.9z"/>
	<path d="M3.6,45.9c0.5-0.9,1.1-1.8,1.6-2.7s1.1-1.7,1.6-2.5l0,0c-0.1,0.1-0.2,0.2-0.3,0.3c-0.1,0.1-0.2,0.2-0.3,0.3c0,0,0,0,0,0
		c-0.1,0.2-0.3,0.3-0.4,0.5c-0.1,0.2-0.3,0.4-0.5,0.6c-0.4,0.4-0.6,0.7-0.7,0.8c-0.1,0.1-0.1,0.2-0.2,0.2h0c0,0-0.1,0-0.1,0
		s0-0.1,0-0.1c0-0.1,0.3-0.4,0.9-1.1c0.6-0.6,1.3-1.5,2-2.5c0.2-0.3,0.4-0.5,0.5-0.8c0.2-0.3,0.4-0.6,0.5-0.8l2.1-3.6l1.2-0.1
		c-0.2,0.4-0.6,1-1.2,2c-0.6,1-1.2,2-1.9,3.1c-0.5,0.8-1,1.7-1.5,2.5c-0.5,0.8-0.9,1.5-1.2,2l0,0c0.9-1.1,1.7-1.9,2.4-2.5
		s1.2-0.9,1.5-0.9c0.3,0,0.5,0.1,0.6,0.3c0.1,0.2,0.2,0.4,0.2,0.7c0,0.2-0.1,0.5-0.3,0.8c-0.2,0.3-0.4,0.6-0.6,1
		c0,0-0.1,0.1-0.1,0.1c0,0-0.1,0.1-0.1,0.1c-0.3,0.4-0.5,0.7-0.7,1s-0.3,0.6-0.3,0.8c0,0.1,0,0.1,0.1,0.2c0.1,0.1,0.1,0.1,0.2,0.1h0
		h0c0.3,0,0.6-0.2,0.9-0.5c0.3-0.3,0.8-0.7,1.3-1.2c0.1-0.1,0.1-0.1,0.1-0.1c0.1-0.1,0.1-0.1,0.1-0.1c0.2-0.2,0.3-0.4,0.5-0.5
		c0.1-0.1,0.2-0.2,0.3-0.2s0.1,0,0.1,0s0,0,0,0.1c0,0-0.1,0.1-0.3,0.4S11.3,44,11,44.3c-0.7,0.7-1.2,1.2-1.6,1.4
		C9.1,45.9,8.8,46,8.6,46c-0.2,0-0.4-0.1-0.5-0.2c-0.2-0.1-0.3-0.4-0.3-0.8c0-0.4,0.1-0.8,0.3-1.2c0.2-0.4,0.5-0.7,0.7-1
		c0.3-0.3,0.5-0.6,0.7-0.9c0.2-0.3,0.3-0.5,0.3-0.7c0-0.1,0-0.1-0.1-0.2c0-0.1-0.1-0.1-0.1-0.1h0c-0.2,0-0.6,0.2-1,0.5
		c-0.5,0.4-0.9,0.8-1.4,1.3c-0.1,0.1-0.3,0.3-0.4,0.4c-0.1,0.1-0.3,0.3-0.4,0.4c-0.4,0.5-0.8,0.9-1.2,1.4c-0.3,0.5-0.6,0.8-0.7,1
		L3.6,45.9z"/>
	<path d="M16.1,42.6c-0.5,0.3-1,0.6-1.5,0.8c-0.3,0.1-0.6,0.2-1,0.3c-0.3,0.1-0.6,0.1-0.8,0.2c0,0.1,0,0.2-0.1,0.3
		c0,0.1,0,0.2,0,0.3c0,0.4,0.1,0.6,0.2,0.8c0.1,0.1,0.3,0.2,0.6,0.3c0.3,0,0.6-0.1,1.1-0.3c0.5-0.2,1-0.6,1.6-1.2
		c0.4-0.4,0.6-0.7,0.8-0.8c0.1-0.2,0.2-0.3,0.3-0.3c0,0,0.1,0,0.1,0s0,0.1,0,0.1s-0.1,0.1-0.2,0.3c-0.1,0.2-0.3,0.4-0.5,0.6
		c0,0-0.1,0.1-0.1,0.1c0,0-0.1,0.1-0.1,0.1c-0.1,0.1-0.1,0.1-0.2,0.2c-0.1,0.1-0.1,0.1-0.2,0.1c-0.3,0.3-0.5,0.5-0.8,0.6
		c-0.3,0.2-0.5,0.3-0.7,0.4c-0.2,0.1-0.4,0.1-0.5,0.2c-0.2,0-0.4,0.1-0.6,0.1c-0.5,0-0.9-0.2-1.1-0.6c-0.3-0.4-0.4-0.8-0.4-1.3
		c0,0,0-0.1,0-0.1s0-0.1,0-0.1c0-0.1,0-0.1,0-0.2c0-0.1,0-0.1,0-0.2c0-0.1,0-0.1,0-0.1c0,0,0-0.1,0-0.1v0h0l0,0l0,0c0,0,0,0,0,0
		c0,0,0,0,0,0h0v0l0,0c0,0,0-0.1,0.1-0.2c0.1-0.1,0.1-0.2,0.2-0.3l0,0h0c0.1-0.1,0.1-0.1,0.2-0.2c0.1-0.1,0.1-0.1,0.1-0.1
		c0.3-0.3,0.5-0.5,0.8-0.7c0.3-0.2,0.5-0.4,0.8-0.6c0.3-0.2,0.6-0.3,0.9-0.4c0.3-0.1,0.6-0.1,0.8-0.1c0.3,0,0.5,0.1,0.7,0.3
		c0.2,0.2,0.3,0.4,0.3,0.7C16.8,41.9,16.6,42.3,16.1,42.6z M15.4,40.9c-0.2,0.1-0.4,0.2-0.6,0.4c-0.2,0.2-0.5,0.4-0.7,0.6
		c-0.2,0.2-0.4,0.5-0.6,0.7c-0.1,0.2-0.3,0.4-0.4,0.6c-0.1,0.2-0.2,0.4-0.2,0.5c0.2,0,0.4-0.1,0.6-0.1s0.4-0.1,0.6-0.2
		c0.5-0.2,1-0.5,1.5-0.9c0.5-0.4,0.7-0.9,0.7-1.4c0-0.1,0-0.2-0.1-0.3c-0.1-0.1-0.2-0.1-0.3-0.1C15.7,40.7,15.5,40.8,15.4,40.9z"/>
	<path d="M21.9,45.5c0.4,0,0.8-0.2,1.3-0.5c0.5-0.3,1-0.8,1.5-1.3c0.2-0.2,0.3-0.4,0.4-0.5c0.1-0.1,0.1-0.1,0.1-0.2h0
		c0,0,0.1,0,0.1,0c0,0,0,0,0,0.1c0,0-0.1,0.1-0.2,0.3c-0.1,0.1-0.3,0.3-0.4,0.5c0,0-0.1,0-0.1,0.1c0,0,0,0-0.1,0.1
		c0,0.1-0.1,0.1-0.1,0.1c-0.1,0.1-0.1,0.1-0.1,0.1c-0.4,0.4-0.8,0.8-1.3,1c-0.5,0.3-1,0.5-1.4,0.5L18.9,51l-1.2,0.1l3-5.4
		c-0.1-0.1-0.1-0.1-0.2-0.3c0-0.1-0.1-0.2-0.1-0.3c0-0.2,0.1-0.3,0.1-0.4c0.1-0.1,0.2-0.2,0.4-0.2c0.1,0,0.1,0,0.1,0
		c0.1,0,0.1,0,0.1,0.1l2.2-4l0,0c-0.3,0.3-0.5,0.5-0.7,0.7c-0.2,0.2-0.4,0.4-0.5,0.6c-0.1,0.1-0.1,0.1-0.2,0.2
		c-0.1,0.1-0.1,0.1-0.2,0.2c-0.3,0.3-0.5,0.6-0.6,0.7c-0.1,0.2-0.2,0.3-0.3,0.3c0,0-0.1,0-0.1,0l0,0v0c0,0,0.1-0.2,0.3-0.4
		c0.2-0.3,0.6-0.7,1.2-1.4c0.3-0.4,0.6-0.6,0.8-0.8c0.2-0.2,0.4-0.3,0.5-0.5c0.1-0.1,0.1-0.1,0.2-0.2c0.1-0.1,0.1-0.2,0.2-0.3
		c0,0,0,0,0-0.1c0,0,0,0,0-0.1c0.2-0.3,0.4-0.7,0.6-1.2c0.3-0.5,0.6-1,0.9-1.5c0.3-0.5,0.7-1,1.1-1.5c0.4-0.5,0.8-0.9,1.2-1.2
		c0.2-0.2,0.4-0.3,0.6-0.4c0.2-0.1,0.4-0.1,0.6-0.1c0.3,0,0.5,0.1,0.5,0.2c0.1,0.1,0.2,0.4,0.2,0.6c0,0.9-0.6,1.9-1.8,2.9
		c-1.2,1-2.6,2.1-4.1,3.4L21.9,45.5z M24.4,40.4c0.3-0.3,0.6-0.5,1.1-0.9c0.4-0.3,0.9-0.7,1.3-1.1c0.4-0.4,0.8-0.8,1.3-1.2
		c0.4-0.4,0.8-0.8,1-1.2c0.2-0.3,0.4-0.6,0.5-0.9s0.2-0.6,0.2-0.8c0-0.1-0.1-0.3-0.1-0.3c-0.1-0.1-0.2-0.1-0.4-0.1
		c-0.4,0-0.9,0.2-1.3,0.7c-0.5,0.5-0.9,1.1-1.4,1.8c-0.3,0.5-0.6,1-0.9,1.6s-0.6,1.1-0.9,1.7c-0.1,0.1-0.1,0.3-0.2,0.4
		C24.5,40.2,24.4,40.3,24.4,40.4L24.4,40.4z"/>
	<path d="M28.7,40.5c-1.2,1.9-1.9,3.1-2.2,3.6C26.1,44.7,26,45,26,45.3c0,0.1,0,0.3,0.1,0.3c0.1,0.1,0.1,0.1,0.2,0.1h0
		c0.1,0,0.3-0.1,0.5-0.1c0.2-0.1,0.4-0.2,0.6-0.4c0.1-0.1,0.3-0.2,0.4-0.3c0.1-0.1,0.3-0.2,0.4-0.3c0.1-0.1,0.1-0.1,0.1-0.1
		c0.1-0.1,0.1-0.1,0.1-0.1c0.1-0.1,0.1-0.1,0.1-0.1c0.1-0.1,0.1-0.1,0.1-0.1c0,0,0-0.1,0.1-0.1c0,0,0,0,0.1-0.1
		c0.2-0.2,0.4-0.4,0.5-0.6c0.1-0.2,0.2-0.3,0.3-0.3c0,0,0.1,0,0.1,0c0,0,0,0,0,0.1c0,0-0.1,0.1-0.3,0.4c-0.2,0.2-0.5,0.5-0.9,1
		c-0.5,0.5-0.9,0.8-1.3,1.1c-0.4,0.3-0.7,0.4-1,0.4s-0.5-0.1-0.7-0.3c-0.2-0.2-0.3-0.4-0.3-0.7c0,0,0-0.1,0-0.1s0-0.1,0-0.1
		c0-0.4,0.2-0.8,0.4-1.2c0.2-0.4,0.5-0.8,0.7-1.2c0.1-0.2,0.2-0.3,0.4-0.5c0.1-0.2,0.2-0.3,0.3-0.5l0,0c-0.1,0.1-0.3,0.3-0.6,0.6
		c-0.3,0.3-0.6,0.7-1.1,1.2c-0.1,0.1-0.1,0.1-0.2,0.2s-0.1,0.1-0.1,0.1h0c0,0-0.1,0-0.1,0s0-0.1,0-0.1s0-0.1,0.1-0.1
		c0.1-0.1,0.2-0.3,0.5-0.5c0.1-0.1,0.2-0.2,0.3-0.4c0.1-0.1,0.2-0.3,0.4-0.4c0.2-0.2,0.4-0.4,0.6-0.6c0.2-0.2,0.3-0.4,0.4-0.5
		L28.7,40.5z M29.3,37.4C29.3,37.4,29.3,37.3,29.3,37.4c0.1-0.2,0.1-0.4,0.3-0.5c0.1-0.1,0.3-0.2,0.4-0.2c0.1,0,0.3,0.1,0.3,0.1
		c0.1,0.1,0.1,0.2,0.1,0.4c0,0,0,0.1,0,0.1s0,0.1,0,0.1c0,0.1-0.1,0.3-0.2,0.4C30.1,37.9,30,38,29.8,38c-0.1,0-0.2-0.1-0.3-0.1
		C29.4,37.8,29.4,37.6,29.3,37.4C29.3,37.4,29.3,37.4,29.3,37.4z"/>
	<path d="M29.8,45.9c0.1-0.2,0.3-0.5,0.6-0.9c0.3-0.4,0.6-0.9,0.9-1.4c0,0,0-0.1,0.1-0.1s0-0.1,0.1-0.1c0.4-0.5,0.7-1,1-1.5
		c0.3-0.5,0.5-0.8,0.5-0.9c0-0.1,0-0.2-0.1-0.2c-0.1-0.1-0.1-0.1-0.2-0.1c0,0,0,0-0.1,0c-0.3,0-0.5,0.1-0.8,0.4
		c-0.3,0.2-0.7,0.6-1.2,1.1c-0.4,0.5-0.7,0.7-0.8,0.8c-0.1,0.1-0.2,0.2-0.2,0.2h0c0,0-0.1,0-0.1,0s0-0.1,0-0.1c0,0,0.1-0.1,0.1-0.2
		c0.1-0.1,0.2-0.2,0.3-0.4c0,0,0,0,0,0c0.1-0.1,0.1-0.1,0.1-0.2c0.1-0.1,0.1-0.1,0.1-0.2c0.5-0.5,0.9-1,1.3-1.3
		c0.4-0.3,0.8-0.5,1.2-0.5c0.3,0,0.5,0.1,0.5,0.3c0.1,0.2,0.2,0.4,0.2,0.7c0,0.1,0,0.3-0.1,0.5c-0.1,0.2-0.1,0.3-0.2,0.5
		c-0.1,0.1-0.1,0.3-0.2,0.4c-0.1,0.1-0.2,0.3-0.3,0.4c-0.1,0.1-0.2,0.3-0.3,0.4c-0.1,0.1-0.2,0.2-0.2,0.3l0,0
		c0.1-0.1,0.4-0.4,0.6-0.7c0.3-0.3,0.6-0.6,0.9-0.9c0.1-0.1,0.2-0.2,0.3-0.3c0.1-0.1,0.2-0.2,0.3-0.3c0.4-0.3,0.7-0.6,1-0.9
		c0.3-0.2,0.6-0.4,0.8-0.4c0.2,0,0.4,0.1,0.5,0.2c0.1,0.1,0.2,0.3,0.2,0.5c0,0,0,0.1,0,0.1s0,0.1,0,0.1c0,0.3-0.1,0.5-0.2,0.8
		c-0.1,0.3-0.3,0.5-0.4,0.7c0,0-0.1,0.1-0.1,0.1c0,0,0,0.1-0.1,0.1c-0.4,0.6-0.8,1.1-1,1.4c-0.2,0.4-0.3,0.6-0.3,0.8
		c0,0.1,0,0.2,0.1,0.3c0.1,0.1,0.1,0.1,0.2,0.1c0.2,0,0.5-0.1,0.8-0.4c0.3-0.3,0.7-0.6,1-0.9c0,0,0.1-0.1,0.1-0.1
		c0,0,0.1-0.1,0.1-0.1c0.4-0.4,0.7-0.7,0.8-0.8c0.1-0.1,0.2-0.2,0.2-0.3h0c0,0,0,0,0.1,0l0,0v0c0,0-0.1,0.1-0.2,0.3
		c-0.1,0.1-0.3,0.3-0.4,0.5c0,0,0,0,0,0l0,0c-0.1,0.1-0.2,0.3-0.3,0.4c-0.1,0.1-0.2,0.2-0.3,0.3c-0.4,0.4-0.8,0.8-1.2,1
		c-0.3,0.3-0.6,0.4-0.8,0.4c-0.3,0-0.5-0.1-0.6-0.4c-0.1-0.2-0.2-0.5-0.2-0.9c0,0,0-0.1,0-0.1c0,0,0-0.1,0-0.1c0-0.3,0.2-0.7,0.4-1
		c0.2-0.3,0.4-0.6,0.7-1c0.3-0.3,0.5-0.6,0.7-0.9c0.2-0.3,0.3-0.5,0.3-0.6c0-0.1,0-0.1-0.1-0.2c-0.1-0.1-0.1-0.1-0.2-0.1
		c-0.2,0-0.6,0.2-1,0.6c-0.5,0.4-0.9,0.8-1.4,1.4c-0.1,0.1-0.2,0.2-0.3,0.3c-0.1,0.1-0.2,0.2-0.3,0.3c-0.5,0.5-0.9,1-1.2,1.4
		c-0.4,0.5-0.6,0.8-0.7,1L29.8,45.9z"/>
	<path d="M42.4,42.6c-0.5,0.3-1,0.6-1.5,0.8c-0.3,0.1-0.6,0.2-1,0.3c-0.3,0.1-0.6,0.1-0.8,0.2c0,0.1,0,0.2-0.1,0.3
		c0,0.1,0,0.2,0,0.3c0,0.4,0.1,0.6,0.2,0.8c0.1,0.1,0.3,0.2,0.6,0.3c0.3,0,0.6-0.1,1.1-0.3c0.5-0.2,1-0.6,1.6-1.2
		c0.4-0.4,0.6-0.7,0.8-0.8c0.1-0.2,0.2-0.3,0.3-0.3c0,0,0.1,0,0.1,0s0,0.1,0,0.1s-0.1,0.1-0.2,0.3c-0.1,0.2-0.3,0.4-0.5,0.6
		c0,0-0.1,0.1-0.1,0.1c0,0-0.1,0.1-0.1,0.1c-0.1,0.1-0.1,0.1-0.2,0.2c-0.1,0.1-0.1,0.1-0.2,0.1c-0.3,0.3-0.5,0.5-0.8,0.6
		c-0.3,0.2-0.5,0.3-0.7,0.4c-0.2,0.1-0.4,0.1-0.5,0.2s-0.4,0.1-0.6,0.1c-0.5,0-0.9-0.2-1.1-0.6c-0.3-0.4-0.4-0.8-0.4-1.3
		c0,0,0-0.1,0-0.1s0-0.1,0-0.1c0-0.1,0-0.1,0-0.2c0-0.1,0-0.1,0-0.2c0-0.1,0-0.1,0-0.1c0,0,0-0.1,0-0.1v0h0l0,0l0,0c0,0,0,0,0,0
		s0,0,0,0h0v0l0,0c0,0,0-0.1,0.1-0.2c0.1-0.1,0.1-0.2,0.2-0.3l0,0h0c0.1-0.1,0.1-0.1,0.2-0.2c0.1-0.1,0.1-0.1,0.1-0.1
		c0.3-0.3,0.5-0.5,0.8-0.7c0.3-0.2,0.5-0.4,0.8-0.6c0.3-0.2,0.6-0.3,0.9-0.4c0.3-0.1,0.6-0.1,0.8-0.1s0.5,0.1,0.7,0.3
		C43,41,43,41.2,43,41.5C43.1,41.9,42.8,42.3,42.4,42.6z M41.6,40.9c-0.2,0.1-0.4,0.2-0.6,0.4c-0.2,0.2-0.5,0.4-0.7,0.6
		c-0.2,0.2-0.4,0.5-0.6,0.7c-0.1,0.2-0.3,0.4-0.4,0.6c-0.1,0.2-0.2,0.4-0.2,0.5c0.2,0,0.4-0.1,0.6-0.1s0.4-0.1,0.6-0.2
		c0.5-0.2,1-0.5,1.5-0.9c0.5-0.4,0.7-0.9,0.7-1.4c0-0.1,0-0.2-0.1-0.3c-0.1-0.1-0.2-0.1-0.3-0.1C41.9,40.7,41.8,40.8,41.6,40.9z"/>
	<path d="M45.9,44.8L45.9,44.8c0.1-0.1,0.3-0.1,0.4-0.2s0.2-0.2,0.3-0.3c0.1-0.1,0.3-0.3,0.4-0.5c0.1-0.1,0.3-0.3,0.3-0.4
		c0.2-0.2,0.3-0.3,0.3-0.4c0.1-0.1,0.1-0.1,0.1-0.1h0c0,0,0.1,0,0.1,0s0,0.1,0,0.1s-0.1,0.1-0.2,0.3c-0.1,0.2-0.3,0.3-0.5,0.5
		c0,0,0,0,0,0.1c0,0,0,0,0,0.1l0,0l0,0c-0.2,0.3-0.5,0.5-0.7,0.7c-0.2,0.2-0.4,0.4-0.6,0.5c-0.3,0.2-0.6,0.3-0.8,0.4
		c-0.3,0.1-0.6,0.1-0.9,0.1c-0.2,0-0.3,0-0.4,0c-0.1,0-0.2-0.1-0.3-0.1c0,0-0.1,0-0.1,0s-0.1,0-0.1-0.1c-0.1,0-0.1-0.1-0.1-0.2
		c-0.1-0.1-0.1-0.1-0.1-0.3c0,0,0-0.1-0.1-0.1c0-0.1,0-0.1,0-0.1c0-0.2,0-0.3,0.1-0.4c0.1-0.1,0.2-0.1,0.4-0.1c0.1,0,0.2,0,0.3,0.1
		s0.1,0.1,0.1,0.2s0,0.2,0,0.2c0,0.1-0.1,0.1-0.1,0.1c0,0-0.1,0.1-0.1,0.1c0,0,0,0.1,0,0.2s0,0.2,0.1,0.2s0.1,0.1,0.3,0.1
		c0.1,0,0.1,0,0.1,0c0.1,0,0.1,0,0.1-0.1c0.3-0.1,0.5-0.4,0.7-0.7c0.2-0.3,0.4-0.7,0.6-1.1c0.1-0.2,0.2-0.5,0.2-0.7
		c0.1-0.2,0.1-0.4,0.1-0.6c0-0.5,0-0.9,0-1.2c0-0.3,0.1-0.5,0.1-0.6l0,0c-0.1,0-0.2,0.2-0.4,0.4c-0.2,0.3-0.5,0.5-0.7,0.8v0l0,0
		c-0.2,0.2-0.4,0.5-0.6,0.7c-0.2,0.2-0.3,0.4-0.4,0.5c0,0-0.1,0.1-0.1,0.1c0,0,0,0.1-0.1,0.1l0,0h0c0,0-0.1,0-0.1,0s0,0,0-0.1
		c0-0.1,0.1-0.2,0.2-0.3c0.1-0.1,0.4-0.4,0.6-0.7c0.1-0.1,0.2-0.2,0.3-0.4c0.1-0.1,0.2-0.3,0.4-0.4c0,0,0,0,0.1-0.1c0,0,0,0,0.1-0.1
		c0.2-0.2,0.4-0.5,0.6-0.6c0.2-0.2,0.3-0.3,0.3-0.3c0,0,0,0,0.1-0.1c0-0.1,0.1-0.1,0.1-0.2c0.1-0.1,0.1-0.1,0.2-0.2s0.2-0.1,0.3-0.1
		c0.1,0,0.2,0,0.3,0.1s0.1,0.1,0.1,0.2c0,0.1-0.1,0.3-0.2,0.3c-0.1,0.1-0.3,0.1-0.4,0.2c0,0-0.1,0-0.1,0s-0.1,0-0.1,0
		c0,0.1,0,0.1,0,0.1c0,0,0,0.1,0,0.1s0,0.1,0,0.1c0,0,0,0.1,0,0.1c0,0.4,0,0.6,0.1,0.9c0.1,0.3,0.1,0.5,0.1,0.6c0,0.1,0,0.2,0.1,0.3
		c0,0.1,0.1,0.2,0.1,0.3c0,0.1,0.1,0.2,0.1,0.3c0,0.1,0,0.2,0,0.3c0,0.2-0.1,0.5-0.1,0.6C46.2,44.5,46.1,44.7,45.9,44.8L45.9,44.8
		L45.9,44.8z"/>
	<path d="M52.3,36.9l1.2-0.1l-1.2,1.9h2.3h0c0,0,0,0,0,0.1c0,0,0,0,0,0.1c0,0,0,0.1,0,0.1c0,0,0,0-0.1,0h-2.4
		c-0.1,0.2-0.4,0.6-0.7,1.1s-0.7,1.1-1.1,1.7c0,0.1-0.1,0.1-0.1,0.2c0,0.1-0.1,0.1-0.1,0.2c-0.4,0.7-0.8,1.3-1.2,1.9
		c-0.3,0.6-0.5,1-0.5,1.3c0,0.1,0,0.2,0.1,0.2s0.1,0.1,0.3,0.1c0.3,0,0.6-0.1,1-0.4c0.3-0.2,0.7-0.6,1.2-1c0.5-0.5,0.8-0.8,0.9-1
		c0.1-0.2,0.2-0.3,0.3-0.3c0,0,0.1,0,0.1,0c0,0,0,0.1,0,0.1s-0.1,0.1-0.2,0.3c-0.1,0.1-0.3,0.3-0.4,0.5c0,0-0.1,0-0.1,0.1
		s0,0-0.1,0.1c-0.1,0.1-0.1,0.1-0.2,0.2c-0.1,0.1-0.1,0.1-0.1,0.1c-0.6,0.6-1.1,1-1.4,1.2c-0.4,0.2-0.7,0.3-1,0.3
		c-0.3,0-0.5-0.1-0.7-0.3c-0.1-0.2-0.2-0.4-0.3-0.6c0,0,0,0,0-0.1s0,0,0-0.1c0-0.1,0-0.2,0-0.3c0-0.1,0-0.2,0-0.3
		c0.1-0.4,0.3-0.9,0.6-1.4c0.3-0.5,0.7-1,1.1-1.7l0,0c-0.1,0.1-0.1,0.1-0.1,0.1c0,0.1-0.1,0.1-0.1,0.1l0,0c0,0,0,0,0,0.1
		c-0.1,0.1-0.3,0.3-0.4,0.4c-0.1,0.1-0.3,0.3-0.5,0.5c0,0-0.1,0.1-0.1,0.2s-0.1,0.1-0.2,0.2c0,0,0,0,0,0c-0.1,0.1-0.2,0.2-0.3,0.3
		c-0.1,0.1-0.1,0.1-0.1,0.1c0,0-0.1,0-0.1,0c0,0,0,0,0-0.1c0,0,0.1-0.1,0.1-0.2s0.3-0.4,0.7-0.8c0.2-0.2,0.5-0.5,0.8-0.9
		c0.3-0.4,0.6-0.8,1-1.2c0.1-0.1,0.2-0.3,0.3-0.4c0.1-0.1,0.2-0.3,0.3-0.4c0.1-0.1,0.1-0.1,0.1-0.2c0.1-0.1,0.1-0.1,0.1-0.2h-0.8
		c0,0-0.1,0-0.1,0c0,0,0-0.1,0-0.1c0,0,0,0,0-0.1c0,0,0,0,0-0.1c0,0,0,0,0,0h0.8L52.3,36.9z"/>
	<path d="M61.2,37.1l-4.1,6.9l0,0c0.1-0.2,0.3-0.4,0.6-0.7c0.3-0.3,0.5-0.6,0.8-1c0.1-0.2,0.3-0.3,0.5-0.5c0.2-0.1,0.3-0.3,0.5-0.5
		c0.3-0.3,0.6-0.5,0.9-0.7s0.6-0.3,0.8-0.3s0.5,0.1,0.5,0.3c0.1,0.2,0.2,0.4,0.2,0.7c0,0.3-0.1,0.5-0.2,0.8
		c-0.1,0.3-0.3,0.5-0.5,0.8c-0.1,0.1-0.1,0.1-0.1,0.2c-0.1,0.1-0.1,0.1-0.1,0.2c-0.3,0.3-0.5,0.7-0.7,1c-0.2,0.3-0.3,0.6-0.3,0.8
		c0,0.1,0,0.2,0.1,0.2c0.1,0.1,0.1,0.1,0.2,0.1c0.2,0,0.5-0.1,0.8-0.3c0.3-0.2,0.8-0.6,1.4-1.3c0.4-0.4,0.6-0.7,0.7-0.8
		c0.1-0.1,0.1-0.2,0.2-0.2h0c0,0,0.1,0,0.1,0l0,0v0v0v0c0,0-0.1,0.1-0.1,0.2c-0.1,0.1-0.2,0.3-0.5,0.5c-0.7,0.8-1.2,1.3-1.6,1.6
		c-0.4,0.3-0.8,0.4-1.1,0.4s-0.5-0.1-0.6-0.3c-0.1-0.2-0.2-0.5-0.2-0.9c0-0.4,0.1-0.8,0.3-1.1c0.2-0.4,0.5-0.7,0.7-1
		c0.3-0.3,0.5-0.6,0.7-0.8c0.2-0.3,0.3-0.5,0.3-0.7c0-0.1,0-0.1-0.1-0.2c-0.1-0.1-0.1-0.1-0.2-0.1c-0.4,0-1.2,0.6-2.4,1.8
		c-1.2,1.2-2.5,3-3.9,5.4c0,0,0,0.1,0,0.1c0,0,0,0,0,0.1l-1.6,2.8l-1.3,0.1l0.6-0.9l6-9.9l0,0c-0.1,0.2-0.3,0.3-0.5,0.5
		c-0.1,0.2-0.3,0.4-0.5,0.6l0,0v0c-0.4,0.5-0.8,1-1.1,1.4c-0.3,0.4-0.5,0.6-0.6,0.6s-0.1,0-0.1,0s0,0,0-0.1v0c0,0,0.1-0.1,0.2-0.3
		c0.1-0.1,0.4-0.5,0.9-1.1c0.5-0.6,0.8-1,1.1-1.4s0.5-0.7,0.8-1c0,0,0.1-0.1,0.1-0.1c0,0,0.1-0.1,0.1-0.1c0.2-0.3,0.4-0.5,0.6-0.8
		s0.5-0.7,0.8-1.1L61.2,37.1z"/>
	<path d="M63.6,45.9c1-1.6,1.7-2.7,2.2-3.4c0.5-0.7,0.8-1.2,0.8-1.4c0-0.1,0-0.1-0.1-0.2c-0.1-0.1-0.1-0.1-0.3-0.1
		c-0.1,0-0.3,0.1-0.6,0.2c-0.3,0.1-0.6,0.4-0.9,0.8c-0.6,0.6-1,1-1.1,1.2c-0.2,0.2-0.3,0.3-0.3,0.3c0,0-0.1,0-0.1,0s0,0,0-0.1
		c0,0,0.1-0.1,0.3-0.3c0.2-0.2,0.4-0.4,0.6-0.6c0.1-0.1,0.1-0.1,0.1-0.2c0.1-0.1,0.1-0.1,0.1-0.2c0.4-0.5,0.8-0.8,1.1-1
		c0.3-0.2,0.6-0.3,0.9-0.3c0.3,0,0.4,0.1,0.6,0.3c0.1,0.2,0.2,0.4,0.2,0.6c0,0.1,0,0.3-0.1,0.5c-0.1,0.2-0.1,0.4-0.2,0.6
		c-0.1,0.1-0.1,0.2-0.2,0.4c-0.1,0.1-0.1,0.3-0.2,0.4c-0.1,0.1-0.2,0.3-0.3,0.4c-0.1,0.1-0.2,0.3-0.2,0.3l0,0c0.5-0.6,1-1.1,1.4-1.4
		c0.4-0.4,0.6-0.6,0.8-0.9c0,0,0-0.1,0-0.1s0-0.1,0-0.1c0.1-0.3,0.3-0.5,0.5-0.7c0.2-0.2,0.5-0.3,0.7-0.3c0.2,0,0.3,0,0.4,0.1
		c0.1,0.1,0.1,0.1,0.1,0.2c0,0.1,0,0.1-0.1,0.2c0,0.1-0.1,0.1-0.1,0.2c-0.1,0.1-0.2,0.2-0.4,0.3c-0.2,0.1-0.3,0.2-0.5,0.4
		c-0.3,0.2-0.5,0.4-0.8,0.7c-0.2,0.3-0.3,0.5-0.3,0.9c0,0.2,0.1,0.3,0.2,0.5c0.1,0.1,0.3,0.2,0.5,0.2c0.1,0,0.3,0,0.5-0.1
		s0.3-0.2,0.4-0.3c0.2-0.2,0.4-0.4,0.5-0.5c0.1-0.1,0.2-0.2,0.2-0.2c0,0,0.1,0,0.1,0c0,0,0,0,0,0.1c0,0,0,0.1-0.1,0.1
		c-0.1,0.1-0.1,0.1-0.2,0.3c0,0-0.1,0.1-0.1,0.1c0,0-0.1,0.1-0.1,0.1c-0.1,0.1-0.1,0.2-0.2,0.2C69.1,44,69,44,68.9,44.1
		c-0.1,0.1-0.2,0.1-0.3,0.1c-0.1,0-0.2,0.1-0.3,0.1c-0.2,0-0.4-0.1-0.6-0.2c-0.2-0.1-0.3-0.3-0.3-0.5c0-0.2,0-0.4,0.1-0.6
		c0.1-0.2,0.2-0.3,0.3-0.5l0,0c-0.3,0.3-0.6,0.5-0.8,0.8c-0.3,0.3-0.6,0.6-0.8,0.9c-0.2,0.2-0.4,0.5-0.6,0.7
		c-0.2,0.3-0.4,0.5-0.6,0.8L63.6,45.9z"/>
	<path d="M74,42.6c-0.5,0.3-1,0.6-1.5,0.8c-0.3,0.1-0.6,0.2-1,0.3c-0.3,0.1-0.6,0.1-0.8,0.2c0,0.1,0,0.2-0.1,0.3c0,0.1,0,0.2,0,0.3
		c0,0.4,0.1,0.6,0.2,0.8c0.1,0.1,0.3,0.2,0.6,0.3c0.3,0,0.6-0.1,1.1-0.3c0.5-0.2,1-0.6,1.6-1.2c0.4-0.4,0.6-0.7,0.8-0.8
		c0.1-0.2,0.2-0.3,0.3-0.3c0,0,0.1,0,0.1,0s0,0.1,0,0.1s-0.1,0.1-0.2,0.3c-0.1,0.2-0.3,0.4-0.5,0.6c0,0-0.1,0.1-0.1,0.1
		c0,0-0.1,0.1-0.1,0.1c-0.1,0.1-0.1,0.1-0.2,0.2c-0.1,0.1-0.1,0.1-0.2,0.1c-0.3,0.3-0.5,0.5-0.8,0.6c-0.3,0.2-0.5,0.3-0.7,0.4
		c-0.2,0.1-0.4,0.1-0.5,0.2c-0.2,0-0.4,0.1-0.6,0.1c-0.5,0-0.9-0.2-1.1-0.6c-0.3-0.4-0.4-0.8-0.4-1.3c0,0,0-0.1,0-0.1s0-0.1,0-0.1
		c0-0.1,0-0.1,0-0.2c0-0.1,0-0.1,0-0.2c0-0.1,0-0.1,0-0.1c0,0,0-0.1,0-0.1v0h0l0,0l0,0c0,0,0,0,0,0c0,0,0,0,0,0h0v0l0,0
		c0,0,0-0.1,0.1-0.2c0.1-0.1,0.1-0.2,0.2-0.3l0,0h0c0.1-0.1,0.1-0.1,0.2-0.2c0.1-0.1,0.1-0.1,0.1-0.1c0.3-0.3,0.5-0.5,0.8-0.7
		c0.3-0.2,0.5-0.4,0.8-0.6c0.3-0.2,0.6-0.3,0.9-0.4c0.3-0.1,0.6-0.1,0.8-0.1c0.3,0,0.5,0.1,0.7,0.3c0.2,0.2,0.3,0.4,0.3,0.7
		C74.6,41.9,74.4,42.3,74,42.6z M73.2,40.9c-0.2,0.1-0.4,0.2-0.6,0.4c-0.2,0.2-0.5,0.4-0.7,0.6c-0.2,0.2-0.4,0.5-0.6,0.7
		c-0.1,0.2-0.3,0.4-0.4,0.6c-0.1,0.2-0.2,0.4-0.2,0.5c0.2,0,0.4-0.1,0.6-0.1c0.2-0.1,0.4-0.1,0.6-0.2c0.5-0.2,1-0.5,1.5-0.9
		c0.5-0.4,0.7-0.9,0.7-1.4c0-0.1,0-0.2-0.1-0.3c-0.1-0.1-0.2-0.1-0.3-0.1C73.5,40.7,73.3,40.8,73.2,40.9z"/>
	<path d="M78.8,45.9c0.1-0.2,0.3-0.5,0.5-0.8c0.3-0.4,0.5-0.8,0.8-1.3c0,0,0.1-0.1,0.1-0.1c0-0.1,0.1-0.1,0.1-0.1
		c0.3-0.5,0.6-1,0.9-1.5c0.3-0.5,0.4-0.8,0.4-0.9c0-0.1,0-0.2-0.1-0.2c0-0.1-0.1-0.1-0.2-0.1h0c-0.2,0-0.5,0.2-0.9,0.6
		c-0.4,0.4-0.8,0.9-1.3,1.4C79,42.8,78.9,43,78.8,43s-0.2,0.2-0.3,0.3c-0.4,0.5-0.8,1-1.2,1.5c-0.3,0.5-0.6,0.8-0.7,1l-1.2,0.1
		c0.9-1.5,1.7-2.6,2.2-3.4c0.5-0.8,0.8-1.3,0.8-1.4c0-0.1,0-0.2-0.1-0.2c-0.1,0-0.1-0.1-0.2-0.1c-0.2,0-0.5,0.1-0.8,0.3
		c-0.3,0.2-0.5,0.4-0.8,0.7c0,0.1-0.1,0.1-0.1,0.1c-0.1,0.1-0.1,0.1-0.1,0.1c-0.5,0.5-0.8,0.8-0.9,1c-0.1,0.2-0.3,0.3-0.3,0.3
		c0,0-0.1,0-0.1,0c0,0,0,0,0-0.1v0c0,0,0.1-0.1,0.3-0.4c0.2-0.2,0.5-0.5,0.8-0.9c0.5-0.5,0.8-0.8,1.2-1c0.3-0.2,0.6-0.3,0.8-0.3
		c0.3,0,0.4,0.1,0.6,0.2c0.1,0.1,0.2,0.3,0.2,0.5c0,0.1,0,0.3-0.1,0.5c-0.1,0.2-0.1,0.3-0.2,0.5c-0.1,0.1-0.1,0.3-0.2,0.5
		c-0.1,0.1-0.1,0.3-0.2,0.4c-0.1,0.1-0.1,0.3-0.2,0.4c-0.1,0.1-0.1,0.3-0.2,0.4l0,0c0.1-0.1,0.3-0.4,0.6-0.7
		c0.2-0.3,0.5-0.6,0.8-0.9c0.1-0.1,0.2-0.2,0.3-0.4c0.1-0.1,0.2-0.3,0.3-0.4c0.3-0.3,0.6-0.5,0.8-0.7c0.3-0.2,0.5-0.3,0.7-0.3
		c0.2,0,0.4,0.1,0.5,0.2c0.1,0.1,0.2,0.4,0.2,0.7c0,0.1,0,0.2,0,0.3c0,0.1,0,0.2-0.1,0.3c-0.1,0.2-0.1,0.4-0.2,0.6
		c-0.1,0.2-0.2,0.4-0.3,0.6c-0.1,0.1-0.1,0.2-0.2,0.3s-0.1,0.2-0.2,0.3l0,0c0.1-0.1,0.3-0.4,0.6-0.7c0.2-0.3,0.5-0.6,0.8-0.9
		c0.1-0.1,0.3-0.3,0.4-0.4c0.1-0.1,0.3-0.3,0.4-0.4c0.3-0.3,0.6-0.5,0.8-0.7c0.3-0.2,0.5-0.3,0.7-0.3c0.2,0,0.3,0.1,0.5,0.2
		c0.1,0.1,0.2,0.4,0.2,0.8c0,0.2,0,0.4-0.1,0.6c-0.1,0.2-0.2,0.4-0.3,0.6c-0.1,0.1-0.2,0.3-0.3,0.4c-0.1,0.1-0.2,0.3-0.3,0.4
		c-0.2,0.3-0.5,0.6-0.6,0.9s-0.3,0.6-0.3,0.8v0v0c0,0.1,0,0.2,0.1,0.3c0.1,0.1,0.1,0.1,0.2,0.1c0.2,0,0.4-0.1,0.7-0.3s0.6-0.5,1-0.9
		c0.6-0.6,0.9-1,1-1.1c0.1-0.1,0.2-0.2,0.3-0.3h0c0,0,0.1,0,0.1,0c0,0,0,0,0,0.1s-0.1,0.1-0.3,0.3c-0.2,0.2-0.4,0.4-0.6,0.6l0,0l0,0
		c0,0-0.1,0.1-0.1,0.1c0,0-0.1,0.1-0.1,0.1c-0.5,0.5-0.9,0.9-1.2,1.1c-0.3,0.3-0.6,0.4-0.9,0.4c-0.3,0-0.5-0.1-0.6-0.3
		C83,45.3,83,45,83,44.6c0-0.4,0.1-0.8,0.3-1.2c0.2-0.4,0.5-0.7,0.7-1c0.3-0.3,0.5-0.6,0.7-0.9c0.2-0.3,0.3-0.5,0.3-0.6v0
		c0,0,0-0.1-0.1-0.1c0,0-0.1,0-0.2,0c-0.3,0-0.6,0.2-1,0.5c-0.4,0.4-0.8,0.8-1.3,1.3c-0.1,0.1-0.2,0.3-0.3,0.4
		c-0.1,0.1-0.2,0.3-0.3,0.4c-0.4,0.5-0.8,1-1.2,1.5c-0.3,0.5-0.6,0.8-0.7,1L78.8,45.9z"/>
	<path d="M90.2,40.5c-1.2,1.9-1.9,3.1-2.2,3.6c-0.3,0.5-0.5,0.9-0.5,1.1c0,0.1,0,0.3,0.1,0.3c0.1,0.1,0.1,0.1,0.2,0.1h0
		c0.1,0,0.3-0.1,0.5-0.1c0.2-0.1,0.4-0.2,0.6-0.4c0.1-0.1,0.3-0.2,0.4-0.3c0.1-0.1,0.3-0.2,0.4-0.3c0.1-0.1,0.1-0.1,0.1-0.1
		c0.1-0.1,0.1-0.1,0.1-0.1c0.1-0.1,0.1-0.1,0.1-0.1c0.1-0.1,0.1-0.1,0.1-0.1c0,0,0-0.1,0.1-0.1c0,0,0,0,0.1-0.1
		c0.2-0.2,0.4-0.4,0.5-0.6c0.1-0.2,0.2-0.3,0.3-0.3c0,0,0.1,0,0.1,0c0,0,0,0,0,0.1c0,0-0.1,0.1-0.3,0.4c-0.2,0.2-0.5,0.5-0.9,1
		c-0.5,0.5-0.9,0.8-1.3,1.1c-0.4,0.3-0.7,0.4-1,0.4c-0.3,0-0.5-0.1-0.7-0.3c-0.2-0.2-0.3-0.4-0.3-0.7c0,0,0-0.1,0-0.1s0-0.1,0-0.1
		c0-0.4,0.2-0.8,0.4-1.2c0.2-0.4,0.5-0.8,0.7-1.2c0.1-0.2,0.2-0.3,0.4-0.5c0.1-0.2,0.2-0.3,0.3-0.5l0,0c-0.1,0.1-0.3,0.3-0.6,0.6
		c-0.3,0.3-0.6,0.7-1.1,1.2c-0.1,0.1-0.1,0.1-0.2,0.2c0,0-0.1,0.1-0.1,0.1h0c0,0-0.1,0-0.1,0s0-0.1,0-0.1s0-0.1,0.1-0.1
		c0.1-0.1,0.2-0.3,0.5-0.5c0.1-0.1,0.2-0.2,0.3-0.4c0.1-0.1,0.2-0.3,0.4-0.4c0.2-0.2,0.4-0.4,0.6-0.6c0.2-0.2,0.3-0.4,0.4-0.5
		L90.2,40.5z M90.9,37.4C90.9,37.4,90.9,37.3,90.9,37.4c0.1-0.2,0.1-0.4,0.3-0.5c0.1-0.1,0.3-0.2,0.4-0.2c0.1,0,0.3,0.1,0.3,0.1
		C92,37,92,37.1,92,37.2c0,0,0,0.1,0,0.1s0,0.1,0,0.1c0,0.1-0.1,0.3-0.2,0.4c-0.1,0.1-0.3,0.2-0.4,0.2c-0.1,0-0.2-0.1-0.3-0.1
		C91,37.8,90.9,37.6,90.9,37.4C90.9,37.4,90.9,37.4,90.9,37.4z"/>
	<path d="M94.7,40.5c-1,1.7-1.8,2.8-2.1,3.3c-0.4,0.5-0.6,1-0.6,1.3c0,0,0,0.1,0,0.1c0,0,0,0.1,0,0.1c0,0.1,0,0.2,0.1,0.2
		c0.1,0.1,0.1,0.1,0.2,0.1h0c0.3,0,0.6-0.2,1.1-0.6c0.5-0.4,0.9-0.8,1.4-1.4c0.2-0.3,0.4-0.5,0.6-0.8c0.2-0.3,0.4-0.5,0.6-0.8
		s0.4-0.5,0.6-0.8c0.2-0.3,0.3-0.5,0.5-0.8l1.2-0.1c-0.1,0.2-0.3,0.5-0.6,0.8s-0.5,0.8-0.8,1.2c0,0.1-0.1,0.1-0.1,0.1
		c0,0.1-0.1,0.1-0.1,0.2c-0.3,0.5-0.6,1-0.9,1.4c-0.3,0.5-0.4,0.8-0.4,1c0,0.1,0,0.2,0.1,0.3c0.1,0.1,0.1,0.1,0.3,0.1
		c0.1,0,0.4-0.1,0.7-0.3c0.3-0.2,0.7-0.5,1.1-1c0.5-0.5,0.9-0.9,1-1c0.1-0.1,0.2-0.2,0.3-0.3h0c0,0,0.1,0,0.1,0c0,0,0,0,0,0.1
		c0,0-0.1,0.1-0.2,0.3c-0.1,0.1-0.3,0.3-0.5,0.5l0,0v0C98,44,98,44.1,97.9,44.2c-0.1,0.1-0.1,0.1-0.2,0.2c-0.5,0.5-0.9,0.9-1.2,1.1
		c-0.3,0.2-0.6,0.4-0.9,0.4s-0.4-0.1-0.5-0.3c-0.1-0.2-0.2-0.3-0.2-0.5c0-0.1,0-0.1,0-0.2s0-0.1,0-0.2c0-0.1,0-0.3,0-0.4
		c0-0.1,0.1-0.2,0.1-0.3l0,0c-0.1,0.1-0.2,0.2-0.4,0.4c-0.1,0.1-0.3,0.3-0.5,0.5c-0.1,0.1-0.3,0.3-0.4,0.4c-0.1,0.1-0.3,0.3-0.5,0.4
		c-0.1,0.1-0.3,0.2-0.5,0.3c-0.2,0.1-0.3,0.1-0.5,0.1c-0.3,0-0.5-0.1-0.7-0.3c-0.1-0.2-0.2-0.5-0.2-0.7c0-0.5,0.1-1,0.4-1.4
		c0.3-0.4,0.5-0.8,0.8-1.2c0.1-0.2,0.3-0.3,0.4-0.5c0.1-0.2,0.3-0.3,0.3-0.5l0,0c-0.1,0.1-0.3,0.3-0.5,0.4c-0.2,0.2-0.3,0.3-0.5,0.5
		c-0.1,0.1-0.1,0.1-0.2,0.2c-0.1,0.1-0.1,0.1-0.1,0.2c-0.1,0.1-0.1,0.2-0.2,0.3c-0.1,0.1-0.1,0.1-0.2,0.2c-0.1,0.1-0.1,0.2-0.2,0.3
		c0,0.1-0.1,0.1-0.1,0.1h0c0,0-0.1,0-0.1,0s0-0.1,0-0.1s0.1-0.1,0.2-0.2c0.1-0.1,0.4-0.4,0.8-0.9c0.2-0.2,0.4-0.4,0.7-0.7
		s0.5-0.5,0.9-0.8L94.7,40.5z"/>
	<path d="M102.4,45.9c0.1-0.2,0.3-0.5,0.5-0.8c0.3-0.4,0.5-0.8,0.8-1.3c0,0,0.1-0.1,0.1-0.1c0-0.1,0.1-0.1,0.1-0.1
		c0.3-0.5,0.6-1,0.9-1.5c0.3-0.5,0.4-0.8,0.4-0.9c0-0.1,0-0.2-0.1-0.2c0-0.1-0.1-0.1-0.2-0.1h-0.1c-0.2,0-0.5,0.2-0.9,0.6
		c-0.4,0.4-0.8,0.9-1.3,1.4c-0.1,0.1-0.2,0.2-0.3,0.3c-0.1,0.1-0.2,0.2-0.3,0.3c-0.4,0.5-0.8,1-1.2,1.5s-0.6,0.8-0.7,1L99,45.9
		c0.9-1.5,1.7-2.6,2.2-3.4c0.5-0.8,0.8-1.3,0.8-1.4c0-0.1,0-0.2-0.1-0.2c-0.1,0-0.1-0.1-0.2-0.1c-0.2,0-0.5,0.1-0.8,0.3
		c-0.3,0.2-0.5,0.4-0.8,0.7c0,0.1-0.1,0.1-0.1,0.1c-0.1,0.1-0.1,0.1-0.1,0.1c-0.5,0.5-0.8,0.8-0.9,1c-0.1,0.2-0.3,0.3-0.3,0.3
		c0,0-0.1,0-0.1,0c0,0,0,0,0-0.1v0c0,0,0.1-0.1,0.3-0.4c0.2-0.2,0.5-0.5,0.8-0.9c0.5-0.5,0.8-0.8,1.2-1c0.3-0.2,0.6-0.3,0.8-0.3
		c0.3,0,0.4,0.1,0.6,0.2c0.1,0.1,0.2,0.3,0.2,0.5c0,0.1,0,0.3-0.1,0.5c-0.1,0.2-0.1,0.3-0.2,0.5c-0.1,0.1-0.1,0.3-0.2,0.5
		c-0.1,0.1-0.1,0.3-0.2,0.4c-0.1,0.1-0.1,0.3-0.2,0.4c-0.1,0.1-0.1,0.3-0.2,0.4l0,0c0.1-0.1,0.3-0.4,0.6-0.7
		c0.2-0.3,0.5-0.6,0.8-0.9c0.1-0.1,0.2-0.2,0.3-0.4c0.1-0.1,0.2-0.3,0.3-0.4c0.3-0.3,0.6-0.5,0.8-0.7c0.3-0.2,0.5-0.3,0.7-0.3
		s0.4,0.1,0.5,0.2c0.1,0.1,0.2,0.4,0.2,0.7c0,0.1,0,0.2,0,0.3c0,0.1,0,0.2-0.1,0.3c-0.1,0.2-0.1,0.4-0.2,0.6
		c-0.1,0.2-0.2,0.4-0.3,0.6c-0.1,0.1-0.1,0.2-0.2,0.3s-0.1,0.2-0.2,0.3l0,0c0.1-0.1,0.3-0.4,0.6-0.7c0.2-0.3,0.5-0.6,0.8-0.9
		c0.1-0.1,0.3-0.3,0.4-0.4c0.1-0.1,0.3-0.3,0.4-0.4c0.3-0.3,0.6-0.5,0.8-0.7c0.3-0.2,0.5-0.3,0.7-0.3c0.2,0,0.3,0.1,0.5,0.2
		c0.1,0.1,0.2,0.4,0.2,0.8c0,0.2,0,0.4-0.1,0.6c-0.1,0.2-0.2,0.4-0.3,0.6c-0.1,0.1-0.2,0.3-0.3,0.4c-0.1,0.1-0.2,0.3-0.3,0.4
		c-0.2,0.3-0.5,0.6-0.6,0.9s-0.3,0.6-0.3,0.8v0v0c0,0.1,0,0.2,0.1,0.3c0.1,0.1,0.1,0.1,0.2,0.1c0.2,0,0.4-0.1,0.7-0.3s0.6-0.5,1-0.9
		c0.6-0.6,0.9-1,1-1.1c0.1-0.1,0.2-0.2,0.3-0.3h0c0,0,0.1,0,0.1,0c0,0,0,0,0,0.1s-0.1,0.1-0.3,0.3c-0.2,0.2-0.4,0.4-0.6,0.6l0,0l0,0
		c0,0-0.1,0.1-0.1,0.1c0,0-0.1,0.1-0.1,0.1c-0.5,0.5-0.9,0.9-1.2,1.1c-0.3,0.3-0.6,0.4-0.9,0.4c-0.3,0-0.5-0.1-0.6-0.3
		s-0.2-0.5-0.2-0.9c0-0.4,0.1-0.8,0.3-1.2c0.2-0.4,0.5-0.7,0.7-1c0.3-0.3,0.5-0.6,0.7-0.9c0.2-0.3,0.3-0.5,0.3-0.6v0
		c0,0,0-0.1-0.1-0.1c0,0-0.1,0-0.2,0c-0.3,0-0.6,0.2-1,0.5c-0.4,0.4-0.8,0.8-1.3,1.3c-0.1,0.1-0.2,0.3-0.3,0.4
		c-0.1,0.1-0.2,0.3-0.3,0.4c-0.4,0.5-0.8,1-1.2,1.5c-0.3,0.5-0.6,0.8-0.7,1L102.4,45.9z"/>
	<path d="M121.3,34.3c-2.4,4-4,6.7-4.9,8.2c-0.9,1.5-1.3,2.4-1.3,2.7c0,0.1,0,0.3,0.1,0.4c0.1,0.1,0.2,0.1,0.4,0.1
		c0.1,0,0.3,0,0.4,0c0.1,0,0.3-0.1,0.4-0.1c0.6-0.2,1.2-0.7,1.8-1.4c0.5-0.7,0.8-1.6,0.8-2.5c0-0.4,0-0.6,0.1-0.8
		c0.1-0.2,0.2-0.3,0.5-0.3c0.2,0,0.3,0.1,0.4,0.2c0.1,0.1,0.1,0.3,0.1,0.5c0,0.1,0,0.2,0,0.4c0,0.1-0.1,0.3-0.1,0.4
		c-0.1,0.2-0.2,0.5-0.3,0.7s-0.2,0.5-0.4,0.7c-0.1,0.2-0.3,0.4-0.4,0.5c-0.1,0.1-0.2,0.3-0.3,0.4c0,0,0.1,0,0.1,0c0,0,0.1,0,0.1,0
		c0.1,0,0.1,0,0.2,0c0.1,0,0.1,0,0.2-0.1c0.2-0.1,0.5-0.2,0.6-0.3c0.2-0.1,0.4-0.3,0.5-0.5c0.1-0.2,0.3-0.3,0.3-0.3
		c0-0.1,0.1-0.1,0.1-0.1h0c0,0,0.1,0,0.1,0c0,0,0,0,0,0.1c0,0,0,0.1-0.1,0.1c-0.1,0.1-0.1,0.1-0.3,0.3c-0.2,0.2-0.4,0.4-0.6,0.5
		c-0.2,0.1-0.5,0.3-0.7,0.3c-0.1,0-0.2,0.1-0.3,0.1c-0.1,0-0.2,0-0.3,0c0,0-0.1,0-0.1,0s-0.1,0-0.1,0c0,0-0.1,0-0.1,0
		c-0.1,0.1-0.2,0.2-0.3,0.3c-0.1,0.1-0.3,0.2-0.4,0.3c-0.3,0.2-0.5,0.3-0.8,0.5c-0.3,0.2-0.6,0.3-0.9,0.3c0,0-0.1,0-0.1,0
		s-0.1,0-0.1,0c-0.4,0-0.7-0.1-0.9-0.4c-0.2-0.3-0.3-0.6-0.3-1c0-0.1,0-0.3,0.1-0.5c0-0.1,0.1-0.3,0.2-0.5c0.1-0.2,0.2-0.4,0.3-0.6
		c0.1-0.2,0.3-0.4,0.4-0.6c0.2-0.3,0.4-0.6,0.6-0.8c0.2-0.2,0.3-0.4,0.3-0.4v0h0c0,0-0.1,0.1-0.3,0.3c-0.1,0.2-0.4,0.5-0.7,0.8
		c-0.5,0.5-0.8,0.8-0.9,1c-0.1,0.1-0.2,0.2-0.2,0.3h0c0,0-0.1,0-0.1,0s0,0,0-0.1c0,0,0.1-0.1,0.3-0.4c0.2-0.2,0.4-0.5,0.6-0.7
		c0,0,0,0,0,0c0.2-0.2,0.4-0.5,0.5-0.6c0.2-0.2,0.3-0.3,0.4-0.4c0.3-0.3,0.7-0.9,1.3-1.9c0.6-0.9,1.2-2,1.9-3.1
		c0.1-0.1,0.1-0.3,0.2-0.4c0.1-0.1,0.1-0.3,0.2-0.4c0.1-0.1,0.2-0.3,0.3-0.5c0.1-0.2,0.2-0.3,0.3-0.5L121.3,34.3z"/>
	<path d="M120.9,45.9c1-1.6,1.7-2.7,2.2-3.4c0.5-0.7,0.8-1.2,0.8-1.4c0-0.1,0-0.1-0.1-0.2c-0.1-0.1-0.1-0.1-0.3-0.1
		c-0.1,0-0.3,0.1-0.6,0.2c-0.3,0.1-0.6,0.4-0.9,0.8c-0.6,0.6-1,1-1.1,1.2s-0.3,0.3-0.3,0.3c0,0-0.1,0-0.1,0s0,0,0-0.1
		c0,0,0.1-0.1,0.3-0.3c0.2-0.2,0.4-0.4,0.6-0.6c0.1-0.1,0.1-0.1,0.1-0.2c0.1-0.1,0.1-0.1,0.1-0.2c0.4-0.5,0.8-0.8,1.1-1
		c0.3-0.2,0.6-0.3,0.9-0.3s0.4,0.1,0.6,0.3c0.1,0.2,0.2,0.4,0.2,0.6c0,0.1,0,0.3-0.1,0.5c-0.1,0.2-0.1,0.4-0.2,0.6
		c-0.1,0.1-0.1,0.2-0.2,0.4c-0.1,0.1-0.1,0.3-0.2,0.4c-0.1,0.1-0.2,0.3-0.3,0.4c-0.1,0.1-0.2,0.3-0.2,0.3l0,0c0.5-0.6,1-1.1,1.4-1.4
		c0.4-0.4,0.6-0.6,0.8-0.9c0,0,0-0.1,0-0.1s0-0.1,0-0.1c0.1-0.3,0.3-0.5,0.5-0.7c0.2-0.2,0.5-0.3,0.7-0.3c0.2,0,0.3,0,0.4,0.1
		c0.1,0.1,0.1,0.1,0.1,0.2c0,0.1,0,0.1-0.1,0.2c0,0.1-0.1,0.1-0.1,0.2c-0.1,0.1-0.2,0.2-0.4,0.3c-0.2,0.1-0.3,0.2-0.5,0.4
		c-0.3,0.2-0.5,0.4-0.8,0.7s-0.3,0.5-0.3,0.9c0,0.2,0.1,0.3,0.2,0.5c0.1,0.1,0.3,0.2,0.5,0.2c0.1,0,0.3,0,0.5-0.1s0.3-0.2,0.4-0.3
		c0.2-0.2,0.4-0.4,0.5-0.5C127,43,127,43,127.1,43c0,0,0.1,0,0.1,0s0,0,0,0.1c0,0,0,0.1-0.1,0.1c-0.1,0.1-0.1,0.1-0.2,0.3
		c0,0-0.1,0.1-0.1,0.1s-0.1,0.1-0.1,0.1c-0.1,0.1-0.1,0.2-0.2,0.2c-0.1,0.1-0.2,0.1-0.3,0.2c-0.1,0.1-0.2,0.1-0.3,0.1
		c-0.1,0-0.2,0.1-0.3,0.1c-0.2,0-0.4-0.1-0.6-0.2c-0.2-0.1-0.3-0.3-0.3-0.5c0-0.2,0-0.4,0.1-0.6c0.1-0.2,0.2-0.3,0.3-0.5l0,0
		c-0.3,0.3-0.6,0.5-0.8,0.8c-0.3,0.3-0.6,0.6-0.8,0.9c-0.2,0.2-0.4,0.5-0.6,0.7c-0.2,0.3-0.4,0.5-0.6,0.8L120.9,45.9z"/>
	<path d="M134,40.6c-0.1,0.1-0.3,0.4-0.5,0.8c-0.3,0.4-0.5,0.8-0.8,1.2c0,0.1-0.1,0.1-0.1,0.2c-0.1,0.1-0.1,0.1-0.1,0.2
		c-0.3,0.5-0.6,1-0.8,1.4c-0.2,0.5-0.4,0.8-0.4,0.9c0,0.1,0,0.1,0.1,0.2c0.1,0.1,0.1,0.1,0.3,0.1c0.3,0,0.7-0.2,1.2-0.7
		c0.5-0.5,1-1,1.6-1.6c0.1-0.1,0.2-0.2,0.2-0.3c0,0,0.1-0.1,0.1-0.1c0,0,0.1,0,0.1,0c0,0,0,0,0,0.1h0v0c0,0-0.1,0.1-0.2,0.3
		c-0.1,0.2-0.3,0.4-0.5,0.5l0,0c-0.1,0.1-0.1,0.1-0.1,0.2c-0.1,0.1-0.1,0.1-0.1,0.2c-0.5,0.5-0.8,0.8-1.2,1.1s-0.7,0.4-0.9,0.4
		c-0.3,0-0.5-0.1-0.6-0.3c-0.1-0.2-0.2-0.5-0.2-1.1c0,0,0-0.1,0-0.1c0,0,0-0.1,0-0.1c0,0,0-0.1,0-0.1s0-0.1,0-0.1
		c-0.1,0.1-0.2,0.2-0.3,0.3c-0.1,0.1-0.3,0.2-0.4,0.4c-0.1,0.1-0.2,0.2-0.3,0.3c-0.1,0.1-0.2,0.2-0.3,0.3c-0.2,0.1-0.4,0.2-0.5,0.3
		c-0.2,0.1-0.3,0.1-0.5,0.1c-0.5,0-0.8-0.2-1-0.5s-0.3-0.7-0.3-1.2v0v0c0-0.1,0-0.1,0-0.2s0-0.1,0-0.2c0-0.1,0-0.1,0-0.2
		c0-0.1,0-0.1,0-0.2h0h0l0,0h0c0,0,0,0,0,0l0,0v0v0v0c0,0,0-0.1,0.1-0.1c0.1-0.1,0.1-0.1,0.2-0.3c0.4-0.4,0.8-0.8,1.2-1.2
		c0.5-0.4,0.9-0.6,1.4-0.8c0.2-0.1,0.4-0.1,0.6-0.2c0.2-0.1,0.4-0.1,0.6-0.1c0.3,0,0.5,0.1,0.6,0.3s0.2,0.4,0.2,0.7
		c0,0.1,0,0.2,0,0.3c0,0.1,0,0.2-0.1,0.2l0,0c0.2-0.3,0.4-0.6,0.5-0.8c0.1-0.2,0.2-0.3,0.3-0.4c0-0.1,0.1-0.1,0.1-0.1
		c0.1,0,0.1,0,0.2,0L134,40.6z M127.9,45.5c0.1,0.1,0.2,0.2,0.3,0.2c0.2,0,0.4-0.1,0.7-0.2c0.3-0.1,0.5-0.4,0.8-0.6
		c0.3-0.2,0.5-0.5,0.8-0.8c0.3-0.3,0.5-0.6,0.6-0.9c0.2-0.3,0.3-0.6,0.5-0.9c0.1-0.3,0.2-0.6,0.2-0.8c0-0.2-0.1-0.4-0.1-0.5
		c-0.1-0.1-0.3-0.2-0.5-0.2c-0.1,0-0.2,0-0.3,0c-0.1,0-0.2,0.1-0.3,0.1c-0.4,0.2-0.8,0.5-1.2,0.9c-0.4,0.5-0.7,0.9-1,1.4
		c-0.2,0.3-0.3,0.6-0.4,1c-0.1,0.3-0.1,0.6-0.1,0.8C127.8,45.2,127.9,45.4,127.9,45.5z"/>
	<path d="M134.7,45.9c0.1-0.2,0.3-0.5,0.6-0.9c0.3-0.4,0.6-0.9,0.9-1.4c0,0,0-0.1,0.1-0.1s0-0.1,0.1-0.1c0.4-0.5,0.7-1,1-1.5
		c0.3-0.5,0.5-0.8,0.5-0.9c0-0.1,0-0.2-0.1-0.2c-0.1-0.1-0.1-0.1-0.2-0.1c0,0,0,0-0.1,0c-0.3,0-0.5,0.1-0.8,0.4
		c-0.3,0.2-0.7,0.6-1.2,1.1c-0.4,0.5-0.7,0.7-0.8,0.8c-0.1,0.1-0.2,0.2-0.2,0.2h0c0,0-0.1,0-0.1,0s0-0.1,0-0.1c0,0,0.1-0.1,0.1-0.2
		c0.1-0.1,0.2-0.2,0.3-0.4c0,0,0,0,0,0c0.1-0.1,0.1-0.1,0.1-0.2c0.1-0.1,0.1-0.1,0.1-0.2c0.5-0.5,0.9-1,1.3-1.3
		c0.4-0.3,0.8-0.5,1.2-0.5c0.3,0,0.5,0.1,0.5,0.3c0.1,0.2,0.2,0.4,0.2,0.7c0,0.1,0,0.3-0.1,0.5c-0.1,0.2-0.1,0.3-0.2,0.5
		c-0.1,0.1-0.1,0.3-0.2,0.4c-0.1,0.1-0.2,0.3-0.3,0.4c-0.1,0.1-0.2,0.3-0.3,0.4c-0.1,0.1-0.2,0.2-0.2,0.3l0,0
		c0.1-0.1,0.4-0.4,0.6-0.7c0.3-0.3,0.6-0.6,0.9-0.9c0.1-0.1,0.2-0.2,0.3-0.3c0.1-0.1,0.2-0.2,0.3-0.3c0.4-0.3,0.7-0.6,1-0.9
		c0.3-0.2,0.6-0.4,0.8-0.4c0.2,0,0.4,0.1,0.5,0.2c0.1,0.1,0.2,0.3,0.2,0.5c0,0,0,0.1,0,0.1s0,0.1,0,0.1c0,0.3-0.1,0.5-0.2,0.8
		c-0.1,0.3-0.3,0.5-0.4,0.7c0,0-0.1,0.1-0.1,0.1c0,0,0,0.1-0.1,0.1c-0.4,0.6-0.8,1.1-1,1.4c-0.2,0.4-0.3,0.6-0.3,0.8
		c0,0.1,0,0.2,0.1,0.3c0.1,0.1,0.1,0.1,0.2,0.1c0.2,0,0.5-0.1,0.8-0.4c0.3-0.3,0.7-0.6,1-0.9c0,0,0.1-0.1,0.1-0.1
		c0,0,0.1-0.1,0.1-0.1c0.4-0.4,0.7-0.7,0.8-0.8c0.1-0.1,0.2-0.2,0.2-0.3h0c0,0,0,0,0.1,0l0,0v0c0,0-0.1,0.1-0.2,0.3
		c-0.1,0.1-0.3,0.3-0.4,0.5c0,0,0,0,0,0l0,0c-0.1,0.1-0.2,0.3-0.3,0.4c-0.1,0.1-0.2,0.2-0.3,0.3c-0.4,0.4-0.8,0.8-1.2,1
		c-0.3,0.3-0.6,0.4-0.8,0.4c-0.3,0-0.5-0.1-0.6-0.4c-0.1-0.2-0.2-0.5-0.2-0.9c0,0,0-0.1,0-0.1c0,0,0-0.1,0-0.1c0-0.3,0.2-0.7,0.4-1
		c0.2-0.3,0.4-0.6,0.7-1c0.3-0.3,0.5-0.6,0.7-0.9c0.2-0.3,0.3-0.5,0.3-0.6c0-0.1,0-0.1-0.1-0.2c-0.1-0.1-0.1-0.1-0.2-0.1
		c-0.2,0-0.6,0.2-1,0.6c-0.5,0.4-0.9,0.8-1.4,1.4c-0.1,0.1-0.2,0.2-0.3,0.3c-0.1,0.1-0.2,0.2-0.3,0.3c-0.5,0.5-0.9,1-1.2,1.4
		c-0.4,0.5-0.6,0.8-0.7,1L134.7,45.9z"/>
	<path d="M152.3,34.3l1.1,0c-0.1,0.1-0.1,0.2-0.2,0.3c-0.1,0.1-0.1,0.2-0.2,0.3c-1.4,2.6-2.8,4.9-4,6.8c-1.2,2-1.8,3.2-1.8,3.5
		c0,0.1,0,0.2,0.1,0.3c0.1,0.1,0.1,0.1,0.3,0.1c0.1,0,0.3-0.1,0.6-0.3c0.3-0.2,0.6-0.5,1-0.8c0.5-0.5,0.9-0.9,1.1-1.1
		c0.2-0.3,0.3-0.4,0.3-0.4c0,0,0.1,0,0.1,0c0,0,0,0,0,0.1c0,0,0,0.1-0.1,0.2c-0.1,0.1-0.2,0.2-0.3,0.4c-0.7,0.8-1.2,1.4-1.7,1.7
		c-0.5,0.4-0.9,0.5-1.2,0.5c-0.2,0-0.4-0.1-0.5-0.3c-0.1-0.2-0.2-0.4-0.2-0.7c0-0.1,0-0.3,0-0.4s0-0.2,0.1-0.3c0,0,0-0.1,0-0.1
		c0,0,0,0,0-0.1l0,0c-0.1,0.1-0.1,0.2-0.3,0.3c-0.1,0.1-0.2,0.3-0.3,0.4c-0.2,0.2-0.4,0.4-0.7,0.6c-0.3,0.2-0.5,0.3-0.8,0.4
		c-0.1,0-0.2,0.1-0.3,0.1c-0.1,0-0.2,0-0.3,0c-0.3,0-0.6-0.1-0.8-0.4s-0.3-0.6-0.3-1c0-0.1,0-0.1,0-0.2c0-0.1,0-0.1,0-0.2
		c0-0.1,0-0.1,0-0.2c0-0.1,0-0.1,0-0.2c0-0.1,0-0.1,0-0.2c0-0.1,0-0.1,0-0.2l0,0l0,0c0,0,0,0-0.1,0.1h0c0,0,0,0,0-0.1c0,0,0,0,0-0.1
		c0,0,0-0.1,0.1-0.1c0.1-0.1,0.2-0.3,0.5-0.6c0.5-0.5,1-1,1.6-1.4c0.6-0.4,1.2-0.6,1.8-0.6c0,0,0.1,0,0.1,0c0.1,0,0.1,0,0.1,0
		c0.3,0,0.5,0.1,0.6,0.2c0.2,0.1,0.3,0.4,0.3,0.6c0,0.1,0,0.2,0,0.3s0,0.2,0,0.2l0,0L152.3,34.3z M147.7,40.8
		c-0.1-0.1-0.2-0.2-0.5-0.2c-0.2,0-0.4,0.1-0.6,0.1c-0.2,0.1-0.4,0.2-0.6,0.4c-0.4,0.3-0.8,0.7-1.1,1.2c-0.4,0.5-0.6,1-0.8,1.5
		c-0.1,0.2-0.1,0.4-0.2,0.6c-0.1,0.2-0.1,0.4-0.1,0.6c0,0.2,0,0.3,0.1,0.4c0.1,0.1,0.2,0.1,0.4,0.1c0.2,0,0.4-0.1,0.7-0.3
		c0.3-0.2,0.6-0.4,0.8-0.7c0.3-0.3,0.6-0.6,0.8-0.9c0.3-0.3,0.5-0.7,0.7-1c0.1-0.3,0.2-0.5,0.3-0.7c0.1-0.2,0.1-0.5,0.1-0.7
		C147.9,41.1,147.8,41,147.7,40.8z"/>
	<path d="M153,44.8L153,44.8c0.1-0.1,0.3-0.1,0.4-0.2s0.2-0.2,0.3-0.3c0.1-0.1,0.3-0.3,0.4-0.5c0.1-0.1,0.3-0.3,0.3-0.4
		c0.2-0.2,0.3-0.3,0.3-0.4c0.1-0.1,0.1-0.1,0.1-0.1h0c0,0,0.1,0,0.1,0c0,0,0,0.1,0,0.1s-0.1,0.1-0.2,0.3c-0.1,0.2-0.3,0.3-0.5,0.5
		c0,0,0,0,0,0.1c0,0,0,0,0,0.1l0,0l0,0c-0.2,0.3-0.5,0.5-0.7,0.7c-0.2,0.2-0.4,0.4-0.6,0.5c-0.3,0.2-0.6,0.3-0.8,0.4
		c-0.3,0.1-0.6,0.1-0.9,0.1c-0.2,0-0.3,0-0.4,0c-0.1,0-0.2-0.1-0.3-0.1c0,0-0.1,0-0.1,0c0,0-0.1,0-0.1-0.1c-0.1,0-0.1-0.1-0.1-0.2
		c-0.1-0.1-0.1-0.1-0.1-0.3c0,0,0-0.1-0.1-0.1c0-0.1,0-0.1,0-0.1c0-0.2,0-0.3,0.1-0.4c0.1-0.1,0.2-0.1,0.4-0.1c0.1,0,0.2,0,0.3,0.1
		c0.1,0.1,0.1,0.1,0.1,0.2s0,0.2,0,0.2c0,0.1-0.1,0.1-0.1,0.1c0,0-0.1,0.1-0.1,0.1c0,0,0,0.1,0,0.2s0,0.2,0.1,0.2
		c0.1,0.1,0.1,0.1,0.3,0.1c0.1,0,0.1,0,0.1,0c0.1,0,0.1,0,0.1-0.1c0.3-0.1,0.5-0.4,0.7-0.7c0.2-0.3,0.4-0.7,0.6-1.1
		c0.1-0.2,0.2-0.5,0.2-0.7c0.1-0.2,0.1-0.4,0.1-0.6c0-0.5,0-0.9,0-1.2c0-0.3,0.1-0.5,0.1-0.6l0,0c-0.1,0-0.2,0.2-0.4,0.4
		s-0.5,0.5-0.7,0.8v0l0,0c-0.2,0.2-0.4,0.5-0.6,0.7c-0.2,0.2-0.3,0.4-0.4,0.5c0,0-0.1,0.1-0.1,0.1c0,0,0,0.1-0.1,0.1l0,0h0
		c0,0-0.1,0-0.1,0s0,0,0-0.1c0-0.1,0.1-0.2,0.2-0.3c0.1-0.1,0.4-0.4,0.6-0.7c0.1-0.1,0.2-0.2,0.3-0.4c0.1-0.1,0.2-0.3,0.4-0.4
		c0,0,0,0,0.1-0.1c0,0,0,0,0.1-0.1c0.2-0.2,0.4-0.5,0.6-0.6c0.2-0.2,0.3-0.3,0.3-0.3c0,0,0,0,0.1-0.1c0-0.1,0.1-0.1,0.1-0.2
		c0.1-0.1,0.1-0.1,0.2-0.2s0.2-0.1,0.3-0.1s0.2,0,0.3,0.1c0.1,0.1,0.1,0.1,0.1,0.2c0,0.1-0.1,0.3-0.2,0.3c-0.1,0.1-0.3,0.1-0.4,0.2
		c0,0-0.1,0-0.1,0c0,0-0.1,0-0.1,0c0,0.1,0,0.1,0,0.1c0,0,0,0.1,0,0.1s0,0.1,0,0.1c0,0,0,0.1,0,0.1c0,0.4,0,0.6,0.1,0.9
		c0.1,0.3,0.1,0.5,0.1,0.6c0,0.1,0,0.2,0.1,0.3c0,0.1,0.1,0.2,0.1,0.3c0,0.1,0.1,0.2,0.1,0.3c0,0.1,0,0.2,0,0.3
		c0,0.2-0.1,0.5-0.1,0.6C153.3,44.5,153.2,44.7,153,44.8L153,44.8L153,44.8z"/>
</g>
</svg>
