<svg xmlns="http://www.w3.org/2000/svg" viewBox="0 0 999.09 140.63"><g id="Layer_2" data-name="Layer 2"><g id="Layer_1-2" data-name="Layer 1"><polygon points="447.07 99.19 444.73 104.62 447.16 99.19 447.07 99.19"/><path d="M110.79,114.3a33.41,33.41,0,0,1-12.37,11.93Q91.27,130,80.53,130H69.3q-9.54,0-12-.9a7.93,7.93,0,0,1-4.67-4.22q-1.2-2.83-1.19-13.17V25.85q0-10.14,1.09-12.52a9.51,9.51,0,0,1,4.07-4.77A18.65,18.65,0,0,1,66,6.47h5.86V2.79H0V6.47H4.48a17.85,17.85,0,0,1,9,1.94,9.94,9.94,0,0,1,4.42,4.52Q19,15.51,19,25.85V114.5q0,10.14-1.09,12.52a9.06,9.06,0,0,1-4,4.77,18.65,18.65,0,0,1-9.44,2.09H0v3.68H119.66l5.07-47.31h-4.08q-4.66,15.9-9.89,24Z"/><path d="M245.76,121.36q-11.38,8.74-30.26,8.75h-8.05c-3.84,0-6.63-.53-8.35-1.59a8.21,8.21,0,0,1-3.53-4.07c-.63-1.66-.94-6.19-.94-13.62v-38q9.65,0,14.71,2.53t8.9,9.89q3.82,7.35,5,18.88H227V33.59h-3.78q-1.59,15.7-7.36,23.75t-18.59,8h-2.68V10.53h13.91q15.3,0,20.87,1.79,9.54,3,14.76,9.34t8.1,21h3.78V2.78H143.24V6.46h4.47q6.56,0,10.34,2.78a9.55,9.55,0,0,1,3.68,5.37c.33,1.39.5,5.14.5,11.23v88.65q0,10.14-1.09,12.52a9.06,9.06,0,0,1-4,4.77,18.65,18.65,0,0,1-9.44,2.09h-4.47v3.68H259.73l6.06-42.84h-3.68q-5,17.9-16.35,26.64Z"/><path d="M366.77,97.4,338.05,30.31q-4.57-10.64-5.37-13.07a13.92,13.92,0,0,1-.8-4.22,4.87,4.87,0,0,1,2.29-4.37q3.18-2.19,11.93-2.19h2.19V2.78h-64.6V6.46c5.23.6,8.8,2,10.68,4.27s5.62,9.84,11.18,22.76l46.22,107.14h3.28l38.37-85.12h-8L366.78,97.4Z"/><path d="M533.74,110.52,485.14,0h-1.89l-48.2,107.54q-6.85,15.4-11.53,20.32a20,20,0,0,1-11.93,6v3.68h44.82v-3.68q-10.53-.8-13.22-2.39a9,9,0,0,1-4.57-8.35q0-4.27,2.78-10.83l3.32-7.69h0l2.34-5.43h.09l24.07-53.77s16.31,37.51,23.39,53.77h.07l7.16,16.8c1.85,4.37,2.85,6.86,3,7.45a12.1,12.1,0,0,1,.6,3.68,5.3,5.3,0,0,1-2.19,4.57q-3.18,2.19-11,2.19h-2.68v3.68h65.2v-3.68q-6.16-.5-9.54-3.58-4.47-4.08-11.43-19.78Z"/><path d="M703.49,130.5q-2.67-2.19-9-11l-32.4-45.61q12.32-3.09,19.19-9.25Q692,54.87,692,40a33.51,33.51,0,0,0-7.15-21.31A36.21,36.21,0,0,0,666.34,6.16Q655,2.79,630.56,2.79H568V6.46c6.16,0,10.37.57,12.62,1.68a9.87,9.87,0,0,1,4.72,4.53q1.35,2.84,1.34,13.76v87.46q0,10.94-1.34,13.72a10.13,10.13,0,0,1-4.67,4.51q-3.33,1.74-12.67,1.74v3.69h69v-3.69c-6.16,0-10.37-.55-12.62-1.68a9.87,9.87,0,0,1-4.72-4.53q-1.35-2.82-1.34-13.76V76.12h8.85l43.43,61.43h42.43v-3.69a16.86,16.86,0,0,1-9.44-3.37ZM655.34,57.39a20.63,20.63,0,0,1-10.78,9.14q-6.85,2.55-20.68,2.54h-5.66V10h10.63q16,0,23.2,7.36t7.21,22.76c0,7.08-1.3,12.84-3.92,17.24Z"/><path d="M847.46,33.7A57.51,57.51,0,0,0,820.17,9.35q-14.7-6.57-38.86-6.56H721V6.46h4.47a18,18,0,0,1,9,1.93,10,10,0,0,1,4.43,4.53Q740,15.52,740,25.84v88.65q0,10.44-.9,12.53a11.34,11.34,0,0,1-4.62,5q-3.12,1.84-9,1.84H721v3.69h60.32q13,0,19.09-1.2a88.93,88.93,0,0,0,23.2-7.3,58,58,0,0,0,16.74-12.52,60.24,60.24,0,0,0,11.83-19.78,72.81,72.81,0,0,0,4.57-26.19q0-20.58-9.29-36.87ZM809,118.87q-8.76,11.32-25.34,11.33c-3.38,0-6-.5-7.76-1.49a5.67,5.67,0,0,1-2.68-2.89c-.54-1.26-.8-4.67-.8-10.23V10.43q16.61-.11,23.76,3,10.14,4.36,16.59,16.5,8.16,15.51,8.16,41.45,0,32.19-11.93,47.5Z"/><path d="M995.4,94.72q-5,17.9-16.35,26.64t-30.26,8.75h-8c-3.84,0-6.63-.53-8.35-1.59a8.21,8.21,0,0,1-3.53-4.07c-.63-1.66-.94-6.19-.94-13.62v-38q9.65,0,14.71,2.53t8.9,9.89q3.83,7.35,5,18.88h3.78V33.59h-3.78Q955,49.3,949.2,57.34t-18.59,8h-2.68V10.53h13.91q15.3,0,20.87,1.79,9.54,3,14.76,9.34t8.1,21h3.78V2.78H876.54V6.46H881q6.56,0,10.34,2.78A9.55,9.55,0,0,1,895,14.61c.33,1.39.5,5.14.5,11.23v88.65q0,10.14-1.09,12.52a9.06,9.06,0,0,1-4,4.77,18.65,18.65,0,0,1-9.44,2.09h-4.47v3.68H993l6.06-42.84H995.4Z"/><polygon points="409.61 29.14 423.47 19.07 406.34 19.07 401.05 2.79 395.76 19.07 378.63 19.07 392.49 29.14 387.2 45.42 401.05 35.36 414.9 45.42 409.61 29.14"/></g></g></svg>